
        <svg xmlns="http://www.w3.org/2000/svg" xmlns:xlink="http://www.w3.org/1999/xlink" version="1.1" width="3162.131522421513" height="705.3393930283615" viewBox="0 0 3162.131522421513 705.3393930283615">
			
			<g transform="scale(8.106576121075664) translate(10, 10)">
				<defs id="SvgjsDefs3164"/><g id="SvgjsG3165" featureKey="symbolFeature-0" transform="matrix(0.8134857420377117,0,0,0.8134857420377117,-9.599132687005548,-6.331269544519307)" fill="#fff"><path xmlns="http://www.w3.org/2000/svg" d="M74.2,60.8c-6.9,0-12.5,5.6-12.5,12.5c0,6.9,5.6,12.5,12.5,12.5s12.5-5.6,12.5-12.5C86.7,66.4,81.2,60.8,74.2,60.8z   M82.2,77.3L82.2,77.3C82.2,77.3,82.2,77.3,82.2,77.3L82.2,77.3C82.2,77.3,82.2,77.3,82.2,77.3C82.2,77.3,82.2,77.3,82.2,77.3  l-4.9,4.9c-0.4,0.4-0.9,0.6-1.4,0.6s-1-0.2-1.4-0.6c-0.4-0.4-0.6-0.9-0.6-1.4s0.2-1,0.6-1.4l1.5-1.5h-8.2c-1.1,0-2-0.9-2-2  s0.9-2,2-2h13c0,0,0,0,0,0c0.5,0,1,0.2,1.3,0.5c0.1,0.1,0.1,0.1,0.2,0.2c0.3,0.3,0.4,0.7,0.5,1.1c0,0.1,0,0.3,0,0.4  C82.7,76.5,82.5,76.9,82.2,77.3z M80.7,72.7h-13c0,0,0,0,0,0c-0.5,0-1-0.2-1.3-0.5c-0.1-0.1-0.1-0.1-0.2-0.2  c-0.3-0.3-0.4-0.7-0.5-1.1c0-0.1,0-0.3,0-0.4c0-0.5,0.2-0.9,0.6-1.3c0,0,0,0,0,0c0,0,0,0,0,0c0,0,0,0,0,0c0,0,0,0,0,0v0c0,0,0,0,0,0  l4.9-4.9c0.8-0.8,2-0.8,2.8,0c0.4,0.4,0.6,0.9,0.6,1.4s-0.2,1-0.6,1.4l-1.5,1.5h8.2c1.1,0,2,0.9,2,2S81.8,72.7,80.7,72.7z M55,64.8  c0,0.8-0.7,1.5-1.5,1.5H23.3c-0.8,0-1.5-0.7-1.5-1.5s0.7-1.5,1.5-1.5h30.2C54.3,63.3,55,64,55,64.8z M71.7,53.4  c0,0.8-0.7,1.5-1.5,1.5h-47c-0.8,0-1.5-0.7-1.5-1.5s0.7-1.5,1.5-1.5h47C71.1,51.9,71.7,52.6,71.7,53.4z M71.7,42  c0,0.8-0.7,1.5-1.5,1.5h-47c-0.8,0-1.5-0.7-1.5-1.5s0.7-1.5,1.5-1.5h47C71.1,40.5,71.7,41.2,71.7,42z M71.7,30.6  c0,0.8-0.7,1.5-1.5,1.5h-47c-0.8,0-1.5-0.7-1.5-1.5s0.7-1.5,1.5-1.5h47C71.1,29.1,71.7,29.8,71.7,30.6z M54.7,81.2  c0,0.8-0.7,1.5-1.5,1.5h-29c-6.8,0-12.4-5.6-12.4-12.4V25.1c0-6.8,5.6-12.4,12.4-12.4h45.3c6.8,0,12.4,5.6,12.4,12.4v29  c0,0.8-0.7,1.5-1.5,1.5s-1.5-0.7-1.5-1.5v-29c0-5.2-4.2-9.4-9.4-9.4H24.1c-5.2,0-9.4,4.2-9.4,9.4v45.3c0,5.2,4.2,9.4,9.4,9.4h29  C54,79.7,54.7,80.4,54.7,81.2z"/></g><g id="SvgjsG3166" featureKey="nameFeature-0" transform="matrix(2.3929826759260435,0,0,2.3929826759260435,74.10820961947786,-28.71339816081512)" fill="#fff"><path d="M7.52 39.9987109 l-4.6392 0.000039062 l0 -14.04 l18.639 0 l0 4.7204 l-14 0 l0 9.3192 z M3.7542 26.833 l-0.000039062 12.291 l2.8917 0 l0 -9.3192 l13.999 0 l0 -2.9721 l-16.891 0 z M2.88 11.998999999999999 l18.64 0 l0 4.6802 l-14 0 z M20.646 15.806000000000001 l0 -2.9327 l-15.668 0 l2.9065 2.9327 l12.762 0 z M35.629999999999995 12 l9.3404 18.681 l-5.2248 -0.00085936 l-4.1156 -8.23 l-4.1024 8.23 l-4.6932 9.32 l-5.2046 0 z M36.412 22.058 l3.8742 7.7468 l3.2702 0.00085936 l-7.926 -15.852 l-12.586 25.172 l3.2518 0 l4.4512 -8.8392 l4.0996 -8.2276 l0.78148 -1.5674 z M47.31 35.3612 l2.3191 4.638 l-5.2046 0 l-2.3191 -4.638 l5.2046 0 z M43.519999999999996 36.2355 l1.445 2.8899 l3.2501 0 l-1.445 -2.8899 l-3.2501 0 z M64.313 12 l4.6732 0 l0 28.001 l-23.286 -20.923 l0 -7.0779 l18.613 16.76 l0 -16.76 z M68.112 38.0397 l0 -25.166 l-2.9249 0 l0 17.849 l-1.459 -1.3138 l-17.154 -15.446 l0 4.7247 z M73.09 39.61492 l4.6392 -4.2956 l14 0 l0 4.6802 l-18.639 0 l0 -0.38461 z M90.85600000000001 36.1944 l-12.783 0 l-3.167 2.9319 l15.95 0 l0 -2.9319 z M73.09 12 l18.64 0 l0 4.6802 l-14 0 z M90.85600000000001 15.806000000000001 l0 -2.9319 l-15.668 0 l2.9065 2.9319 l12.762 0 z M73.09 28.34 l0 -4.64 l18.639 0 l0 4.64 l-18.639 0 z M73.9641 24.573999999999998 l0 2.8917 l16.891 0 l0 -2.8917 l-16.891 0 z M101.81120000000001 11.998999999999999 l7.9476 10.208 l-2.945 3.792 l-10.974 -14 l5.9712 0 z M106.81 24.578 l1.8409 -2.3707 l-7.2676 -9.334 l-3.7483 0 z M95.84 39.99875 l10.974 -14 l2.945 3.7929 l-7.9476 10.208 l-5.9712 0 z M101.3836 39.1246 l7.2676 -9.334 l-1.8409 -2.3707 l-9.1752 11.705 l3.7483 0 z M123.679 11.998999999999999 l-10.934 14 l-2.986 -3.792 l7.9888 -10.208 l5.931 0 z M110.87 22.206 l1.8724 2.3768 l9.1444 -11.709 l-3.7134 0 z M109.75900000000001 29.792 l2.986 -3.7929 l10.934 14 l-5.931 0 z M118.174 39.12456 l3.7134 0 l-9.1444 -11.709 l-1.8724 2.3776 z"/></g>
			</g>
		</svg>
	