
        <svg xmlns="http://www.w3.org/2000/svg" xmlns:xlink="http://www.w3.org/1999/xlink" version="1.1" width="3162.2933537965023" height="1088.0441377058503" viewBox="0 0 3162.2933537965023 1088.0441377058503">
			
			<g transform="scale(8.11466768982511) translate(10, 10)">
				<defs id="SvgjsDefs7856"><linearGradient id="SvgjsLinearGradient7863"><stop id="SvgjsStop7864" stop-color="#8f5e25" offset="0"/><stop id="SvgjsStop7865" stop-color="#fbf4a1" offset="0.5"/><stop id="SvgjsStop7866" stop-color="#8f5e25" offset="1"/></linearGradient><linearGradient id="SvgjsLinearGradient7867"><stop id="SvgjsStop7868" stop-color="#8f5e25" offset="0"/><stop id="SvgjsStop7869" stop-color="#fbf4a1" offset="0.5"/><stop id="SvgjsStop7870" stop-color="#8f5e25" offset="1"/></linearGradient><linearGradient id="SvgjsLinearGradient7871"><stop id="SvgjsStop7872" stop-color="#8f5e25" offset="0"/><stop id="SvgjsStop7873" stop-color="#fbf4a1" offset="0.5"/><stop id="SvgjsStop7874" stop-color="#8f5e25" offset="1"/></linearGradient></defs><g id="SvgjsG7857" featureKey="symbolFeature-0" transform="matrix(0.7787386700972577,0,0,0.7787386700972577,-7.787381502331095,18.655183489269312)" fill="#fff"><g xmlns="http://www.w3.org/2000/svg" transform="translate(0,-952.36218)"><path d="m 60.7828,964.36215 27.1809,0.8834 -27.1809,25.9958 z m -1.9745,1.4513 0,26.7845 -25.2681,0 c 8.6166,-8.7334 16.8796,-17.8103 25.2681,-26.7845 z m 27.7053,3.628 3.4864,1.1989 -12.5877,7.4768 z m -68.1835,2.9656 5.5226,0 12.8654,14.0705 -5.9854,6.1204 -12.4026,0 c 9e-4,-6.7347 0,-13.4597 0,-20.1909 z m -1.9746,1.2304 0,5.8364 -6.3555,0 z m 3.363,20.9796 38.627,0 -10.7675,29.43465 z m 39.0898,4.54286 0,41.20229 -12.5878,-6.8775 c 4.1972,-11.443 8.3886,-22.879 12.5878,-34.32479 z" style="text-indent:0;text-transform:none;direction:ltr;block-progression:tb;baseline-shift:baseline;color:;enable-background:accumulate;" fill-opacity="1" stroke="none" marker="none" visibility="visible" display="inline" overflow="visible"/></g></g><g id="SvgjsG7858" featureKey="nameFeature-0" transform="matrix(2.381649664448565,0,0,2.381649664448565,75.14084869382995,-28.57741336067945)" fill="#fff"><path d="M7.52 39.9987109 l-4.6392 0.000039062 l0 -14.04 l18.639 0 l0 4.7204 l-14 0 l0 9.3192 z M3.7542 26.833 l-0.000039062 12.291 l2.8917 0 l0 -9.3192 l13.999 0 l0 -2.9721 l-16.891 0 z M2.88 11.998999999999999 l18.64 0 l0 4.6802 l-14 0 z M20.646 15.806000000000001 l0 -2.9327 l-15.668 0 l2.9065 2.9327 l12.762 0 z M35.629999999999995 12 l9.3404 18.681 l-5.2248 -0.00085936 l-4.1156 -8.23 l-4.1024 8.23 l-4.6932 9.32 l-5.2046 0 z M36.412 22.058 l3.8742 7.7468 l3.2702 0.00085936 l-7.926 -15.852 l-12.586 25.172 l3.2518 0 l4.4512 -8.8392 l4.0996 -8.2276 l0.78148 -1.5674 z M47.31 35.3612 l2.3191 4.638 l-5.2046 0 l-2.3191 -4.638 l5.2046 0 z M43.519999999999996 36.2355 l1.445 2.8899 l3.2501 0 l-1.445 -2.8899 l-3.2501 0 z M64.313 12 l4.6732 0 l0 28.001 l-23.286 -20.923 l0 -7.0779 l18.613 16.76 l0 -16.76 z M68.112 38.0397 l0 -25.166 l-2.9249 0 l0 17.849 l-1.459 -1.3138 l-17.154 -15.446 l0 4.7247 z M73.09 39.61492 l4.6392 -4.2956 l14 0 l0 4.6802 l-18.639 0 l0 -0.38461 z M90.85600000000001 36.1944 l-12.783 0 l-3.167 2.9319 l15.95 0 l0 -2.9319 z M73.09 12 l18.64 0 l0 4.6802 l-14 0 z M90.85600000000001 15.806000000000001 l0 -2.9319 l-15.668 0 l2.9065 2.9319 l12.762 0 z M73.09 28.34 l0 -4.64 l18.639 0 l0 4.64 l-18.639 0 z M73.9641 24.573999999999998 l0 2.8917 l16.891 0 l0 -2.8917 l-16.891 0 z M101.81120000000001 11.998999999999999 l7.9476 10.208 l-2.945 3.792 l-10.974 -14 l5.9712 0 z M106.81 24.578 l1.8409 -2.3707 l-7.2676 -9.334 l-3.7483 0 z M95.84 39.99875 l10.974 -14 l2.945 3.7929 l-7.9476 10.208 l-5.9712 0 z M101.3836 39.1246 l7.2676 -9.334 l-1.8409 -2.3707 l-9.1752 11.705 l3.7483 0 z M123.679 11.998999999999999 l-10.934 14 l-2.986 -3.792 l7.9888 -10.208 l5.931 0 z M110.87 22.206 l1.8724 2.3768 l9.1444 -11.709 l-3.7134 0 z M109.75900000000001 29.792 l2.986 -3.7929 l10.934 14 l-5.931 0 z M118.174 39.12456 l3.7134 0 l-9.1444 -11.709 l-1.8724 2.3776 z"/></g><g id="SvgjsG7859" featureKey="sloganFeature-0" transform="matrix(1.9344820785175063,0,0,1.9344820785175063,79.21434569624284,75.39341377663001)" fill="#fff"><path d="M3.76 19.99935546 l-2.3196 0.000019531 l0 -7.0198 l9.3197 0 l0 2.3602 l-7.0001 0 l0 4.6596 z M1.8771 13.416599999999999 l-0.000019531 6.1456 l1.4458 0 l0 -4.6596 l6.9997 0 l0 -1.486 l-8.4455 0 z M1.44 6 l9.3201 0 l0 2.3401 l-7.0001 0 z M10.323 7.9030000000000005 l0 -1.4664 l-7.8341 0 l1.4533 1.4664 l6.3808 0 z M14.505 6.029999999999999 l2.32 2.3004 l0 9.3 l-2.32 2.34 l0 -13.94 z M16.3874 17.450400000000002 l0 -8.9385 l-1.4458 -1.4332 l0 11.83 z M22.869999999999997 17.6602 l6.9997 0 l0 2.3401 l-9.3197 0 z M29.433 19.56312 l0 -1.4659 l-6.3808 0 l-1.4533 1.4659 l7.8341 0 z M22.869999999999997 6 l0 8.491 l-2.32 2.34 l0 -10.831 l2.32 0 z M22.433 14.3112 l0 -7.8743 l-1.4458 0 l0 9.3323 z M33.595 19.80746 l2.3196 -2.1478 l7.0001 0 l0 2.3401 l-9.3197 0 l0 -0.1923 z M42.478 18.0972 l-6.3917 0 l-1.5835 1.4659 l7.9752 0 l0 -1.4659 z M33.595 6 l9.3201 0 l0 2.3401 l-7.0001 0 z M42.478 7.9030000000000005 l0 -1.4659 l-7.8341 0 l1.4533 1.4659 l6.3808 0 z M33.595 14.17 l0 -2.32 l9.3197 0 l0 2.32 l-9.3197 0 z M34.0321 12.2872 l0 1.4458 l8.4455 0 l0 -1.4458 l-8.4455 0 z M64.755 13.0408 c0.80684 0.79328 1.2098 1.7549 1.2103 2.8842 c0 1.1167 -0.40342 2.0778 -1.2103 2.885 c-0.79416 0.79374 -1.7553 1.1902 -2.885 1.1902 l0 -2.3401 c0.2417 0 0.47072 -0.043712 0.68576 -0.13156 c0.21504 -0.086972 0.40342 -0.20804 0.56468 -0.36278 c0.16172 -0.15473 0.28542 -0.34004 0.37326 -0.55508 c0.086972 -0.21504 0.13111 -0.44364 0.13111 -0.68576 c0 -0.4703 -0.17482 -0.88028 -0.52448 -1.2304 c-0.33612 -0.34964 -0.7461 -0.52448 -1.2304 -0.52448 l-3.4896 0 c-1.1298 0 -2.0918 -0.39686 -2.8846 -1.1901 c-0.79416 -0.79328 -1.1906 -1.7614 -1.1906 -2.9048 c0 -1.1163 0.39686 -2.0708 1.1906 -2.8646 c0.78018 -0.80684 1.7417 -1.2107 2.8846 -1.2107 l0 2.3405 c-0.2417 0 -0.47072 0.043262 -0.68576 0.13111 s-0.40342 0.21198 -0.5647 0.37326 c-0.16127 0.16127 -0.28584 0.35008 -0.37326 0.56512 s-0.13113 0.43708 -0.13113 0.66522 c0 0.48428 0.16783 0.90126 0.50438 1.2509 c0.33566 0.34964 0.75264 0.52404 1.2505 0.52404 l3.4896 0 c1.1298 0 2.0914 0.3973 2.8852 1.1906 z M64.446 18.5011 c0.72816 -0.7286 1.0817 -1.5713 1.0821 -2.5762 c0 -1.0171 -0.35314 -1.8584 -1.0795 -2.573 c-0.71768 -0.71768 -1.5604 -1.0652 -2.5782 -1.0652 l-3.4896 0 c-0.61888 0 -1.1456 -0.22116 -1.5656 -0.65822 c-0.41566 -0.43184 -0.62632 -0.95456 -0.62632 -1.5538 c0 -0.28454 0.05463 -0.56382 0.16303 -0.83 c0.10928 -0.26836 0.2675 -0.50744 0.46944 -0.70938 c0.20148 -0.20194 0.44012 -0.3597 0.70892 -0.46898 c0.1333 -0.0542 0.2714 -0.095292 0.41346 -0.12238 l0 -1.4847 c-0.8335 0.087852 -1.5346 0.43534 -2.1334 1.0547 c-0.7203 0.7203 -1.0678 1.556 -1.0678 2.5608 c0 1.0324 0.3479 1.8812 1.0625 2.5958 s1.5569 1.0621 2.5756 1.0621 l3.4896 0 c0.6049 0 1.125 0.2216 1.5455 0.65868 c0.42746 0.4279 0.64688 0.94582 0.64688 1.5337 c0 0.2972 -0.055078 0.58304 -0.16303 0.8501 c-0.11232 0.27404 -0.27228 0.51136 -0.47684 0.70674 c-0.20106 0.1923 -0.43752 0.34442 -0.70282 0.45194 c-0.13287 0.0542 -0.27098 0.095292 -0.41302 0.12238 l0 1.4843 c0.82608 -0.086972 1.5289 -0.42962 2.139 -1.0393 z M69.71 19.80746 l2.3196 -2.1478 l7.0001 0 l0 2.3401 l-9.3197 0 l0 -0.1923 z M78.59299999999999 18.0972 l-6.3917 0 l-1.5835 1.4659 l7.9752 0 l0 -1.4659 z M69.71 6 l9.3201 0 l0 2.3401 l-7.0001 0 z M78.59299999999999 7.9030000000000005 l0 -1.4659 l-7.8341 0 l1.4533 1.4659 l6.3808 0 z M69.71 14.17 l0 -2.32 l9.3197 0 l0 2.32 l-9.3197 0 z M70.1471 12.2872 l0 1.4458 l8.4455 0 l0 -1.4458 l-8.4455 0 z M92.082 6 l2.3366 0 l0 14 l-11.643 -10.461 l0 -3.539 l9.3066 8.38 l0 -8.38 z M93.981 19.01984 l0 -12.583 l-1.4624 0 l0 8.9246 l-0.72948 -0.65692 l-8.577 -7.723 l0 2.3624 z M109.265 10.2968 c0.36976 0.84748 0.5546 1.7483 0.5546 2.7024 c0 0.95544 -0.18488 1.8562 -0.55464 2.7032 c-0.36976 0.84748 -0.8711 1.5909 -1.5027 2.2294 c-0.63288 0.639 -1.3754 1.143 -2.2294 1.5127 c-0.85404 0.3702 -1.7583 0.55508 -2.713 0.55508 l-4.6601 0 l2.32 -2.34 l2.3401 0 c0.64512 0 1.2505 -0.12107 1.8152 -0.3632 s1.059 -0.57824 1.483 -1.0088 c0.42352 -0.43008 0.75614 -0.9279 0.99826 -1.4926 c0.24212 -0.56514 0.3632 -1.163 0.3632 -1.7955 c0 -0.63156 -0.12107 -1.2304 -0.3632 -1.795 s-0.57868 -1.0625 -1.0088 -1.4926 c-0.4305 -0.4305 -0.9279 -0.76662 -1.4926 -1.0088 c-0.56468 -0.24258 -1.1635 -0.3632 -1.795 -0.3632 l-2.3401 0 l-2.32 -2.34 l4.6601 0 c0.95456 0 1.8558 0.18531 2.7028 0.55462 c0.84748 0.3702 1.5901 0.87456 2.229 1.5131 c0.63856 0.639 1.1429 1.382 1.5131 2.229 z M108.865 15.5282 c0.34354 -0.7876 0.51792 -1.6381 0.51792 -2.528 s-0.17439 -1.7409 -0.51792 -2.5284 c-0.34616 -0.7924 -0.82432 -1.497 -1.4218 -2.0948 c-0.5979 -0.59704 -1.3025 -1.0752 -2.0948 -1.4213 c-0.78804 -0.34398 -1.639 -0.51838 -2.528 -0.51838 l-3.6115 0 l1.4533 1.4659 l2.1583 0 c0.6897 0 1.3514 0.13418 1.9677 0.39862 c0.61234 0.26224 1.1604 0.6329 1.629 1.101 c0.4681 0.4681 0.8383 1.0166 1.1014 1.6298 c0.26444 0.61714 0.39862 1.2789 0.39862 1.9672 s-0.13418 1.3501 -0.39862 1.9677 c-0.26268 0.61234 -0.62894 1.16 -1.0888 1.6272 c-0.46112 0.46854 -1.007 0.84004 -1.622 1.1036 c-0.61714 0.26444 -1.2859 0.39862 -1.9874 0.39862 l-2.1583 0 l-1.4533 1.4659 l3.6115 0 c0.88988 0 1.7444 -0.17439 2.539 -0.5188 c0.79854 -0.34572 1.5027 -0.823 2.0928 -1.4192 c0.59048 -0.59704 1.066 -1.3025 1.413 -2.0966 z M113.545 19.80746 l2.3196 -2.1478 l7.0001 0 l0 2.3401 l-9.3197 0 l0 -0.1923 z M122.428 18.0972 l-6.3917 0 l-1.5835 1.4659 l7.9752 0 l0 -1.4659 z M113.545 6 l9.3201 0 l0 2.3401 l-7.0001 0 z M122.428 7.9030000000000005 l0 -1.4659 l-7.8341 0 l1.4533 1.4659 l6.3808 0 z M113.545 14.17 l0 -2.32 l9.3197 0 l0 2.32 l-9.3197 0 z M113.9821 12.2872 l0 1.4458 l8.4455 0 l0 -1.4458 l-8.4455 0 z M136.587 13.3026 c-0.53802 0.78018 -1.2238 1.3383 -2.0568 1.6744 l2.8846 5.0228 l-2.6832 0 l-4.0656 -7.0088 l2.0888 0.0091796 c0.63202 0 1.1766 -0.2286 1.6342 -0.68576 c0.45674 -0.45716 0.68576 -1.0088 0.68576 -1.6543 c0 -0.63202 -0.2286 -1.177 -0.68576 -1.6342 c-0.45762 -0.45716 -1.0022 -0.68576 -1.6342 -0.68576 l-4.7868 0 l-1.3575 -2.34 l6.1439 0 c1.2776 0 2.3734 0.45762 3.2876 1.372 c0.91478 0.91478 1.372 2.0106 1.372 3.288 c0 0.9681 -0.2758 1.8492 -0.82696 2.6426 z M136.659 19.5631 l-2.5088 -4.369 l-0.25 -0.43534 l0.46548 -0.1875 c0.7487 -0.30158 1.375 -0.8121 1.8611 -1.5171 c0.50526 -0.7264 0.75002 -1.5092 0.75002 -2.3942 c0 -1.1674 -0.40692 -2.142 -1.2439 -2.979 s-1.8117 -1.2439 -2.979 -1.2439 l-5.3852 0 l0.85098 1.4659 l4.5351 0 c0.7487 0 1.4026 0.27404 1.9428 0.81382 c0.54022 0.54066 0.81382 1.1945 0.81382 1.9432 c0 0.7627 -0.27362 1.4231 -0.81382 1.9633 c-0.54022 0.53978 -1.1941 0.81382 -1.9432 0.81382 l-1.3283 -0.0056836 l3.5568 6.1316 l1.6762 0 z"/></g>
			</g>
		</svg>
	